<svg width="48" height="48" viewBox="0 0 48 48" fill="none" xmlns="http://www.w3.org/2000/svg">
    <path d="M0 24C0 10.7452 10.7452 0 24 0C37.2548 0 48 10.7452 48 24C48 37.2548 37.2548 48 24 48C10.7452 48 0 37.2548 0 24Z" fill="#242129"/>
    <path d="M29.4048 23.9534C29.4048 21.0629 26.992 18.662 24 18.662C21.008 18.662 18.5952 21.0629 18.5952 23.9534C18.5952 26.8205 21.008 29.1515 24 29.1515C26.992 29.1515 29.4048 26.8205 29.4048 23.9534ZM28.1501 23.9534C28.1501 26.1445 26.1233 27.9394 24 27.9394C21.6595 27.9394 19.8499 26.1911 19.8499 23.9534C19.8499 21.7389 21.6595 19.8741 24 19.8741C26.1475 19.8741 28.1501 21.7389 28.1501 23.9534ZM33 29.0117V18.9883L24 14L15 18.9883V29.0117L24 34L33 29.0117ZM31.4075 28.1492L24.0241 32.2284L16.5925 28.1492V19.9207L24 15.7716L31.4075 19.9207V28.1492Z" fill="#FF2D55"/>
</svg>
