<svg width="26" height="30" viewBox="0 0 26 30" fill="none" xmlns="http://www.w3.org/2000/svg">
    <path d="M20.5143 14.9322C20.5143 10.728 17.1237 7.23569 12.9195 7.23569C8.71517 7.23569 5.32462 10.728 5.32462 14.9322C5.32462 19.1026 8.71517 22.4932 12.9195 22.4932C17.1237 22.4932 20.5143 19.1026 20.5143 14.9322ZM18.7512 14.9322C18.7512 18.1193 15.9031 20.7301 12.9195 20.7301C9.63062 20.7301 7.08771 18.1872 7.08771 14.9322C7.08771 11.7112 9.63062 8.99877 12.9195 8.99877C15.937 8.99877 18.7512 11.7112 18.7512 14.9322ZM25.5662 22.2897V7.71036L12.9195 0.45459L0.272705 7.71036V22.2897L12.9195 29.5455L25.5662 22.2897ZM23.3284 21.0352L12.9534 26.9687L2.51047 21.0352V9.06658L12.9195 3.03141L23.3284 9.06658V21.0352Z" fill="#FF2D55" stroke="#716B7C" stroke-width="0.4"/>
</svg>
