<svg width="30" height="30" viewBox="0 0 30 30" fill="none" xmlns="http://www.w3.org/2000/svg">
    <path fill-rule="evenodd" clip-rule="evenodd" d="M15 0.45459L29.5454 15L15 29.5455L0.454529 15L15 0.45459ZM15 4.52732L25.4727 15L15 25.4728L4.52726 15L15 4.52732ZM15 20.2364C16.3888 20.2366 17.7207 19.685 18.7028 18.7031C19.685 17.7212 20.2368 16.3894 20.237 15.0007C20.2371 13.6119 19.6856 12.2799 18.7037 11.2978C17.7218 10.3157 16.39 9.76384 15.0012 9.76368C13.6124 9.76368 12.2805 10.3154 11.2985 11.2974C10.3165 12.2794 9.76483 13.6113 9.76483 15C9.76483 16.3888 10.3165 17.7207 11.2985 18.7027C12.2805 19.6847 13.6124 20.2364 15.0012 20.2364H15Z" fill="#161518"/>
</svg>
