<svg width="48" height="48" viewBox="0 0 48 48" fill="none" xmlns="http://www.w3.org/2000/svg">
    <path d="M0 24C0 10.7452 10.7452 0 24 0C37.2548 0 48 10.7452 48 24C48 37.2548 37.2548 48 24 48C10.7452 48 0 37.2548 0 24Z" fill="#242129"/>
    <path fill-rule="evenodd" clip-rule="evenodd" d="M24 14L34 24L24 34L14 24L24 14ZM24 16.8L31.2 24L24 31.2L16.8 24L24 16.8ZM24 27.6C24.9548 27.6001 25.8705 27.2209 26.5457 26.5459C27.2209 25.8708 27.6003 24.9552 27.6004 24.0004C27.6005 23.0456 27.2213 22.1299 26.5463 21.4547C25.8712 20.7795 24.9556 20.4001 24.0008 20.4C23.0461 20.4 22.1304 20.7793 21.4552 21.4544C20.7801 22.1295 20.4008 23.0452 20.4008 24C20.4008 24.9548 20.7801 25.8705 21.4552 26.5456C22.1304 27.2207 23.0461 27.6 24.0008 27.6H24Z" fill="white"/>
</svg>
