<svg width="64" height="64" viewBox="0 0 64 64" fill="none" xmlns="http://www.w3.org/2000/svg">
<path d="M51.7157 12L34.6041 24.7609L37.8125 17.2353L51.7157 12Z" fill="#E17726" stroke="#E17726" stroke-width="0.105293" stroke-linecap="round" stroke-linejoin="round"/>
<path d="M12.2851 12L29.2573 24.8544L26.2348 17.2353L12.2851 12Z" fill="#E27625" stroke="#E27625" stroke-width="0.105293" stroke-linecap="round" stroke-linejoin="round"/>
<path d="M45.5775 41.5415L41.0206 48.553L50.7389 51.2174L53.5288 41.6817L45.5775 41.5415Z" fill="#E27625" stroke="#E27625" stroke-width="0.105293" stroke-linecap="round" stroke-linejoin="round"/>
<path d="M10.5174 41.6817L13.2609 51.2174L22.9792 48.553L18.4688 41.5415L10.5174 41.6817Z" fill="#E27625" stroke="#E27625" stroke-width="0.105293" stroke-linecap="round" stroke-linejoin="round"/>
<path d="M22.4677 29.7156L19.7242 33.829L29.396 34.2497L29.0705 23.8259L22.4677 29.7156Z" fill="#E27625" stroke="#E27625" stroke-width="0.105293" stroke-linecap="round" stroke-linejoin="round"/>
<path d="M41.579 29.7157L34.8366 23.6858L34.6041 34.2498L44.2759 33.8291L41.579 29.7157Z" fill="#E27625" stroke="#E27625" stroke-width="0.105293" stroke-linecap="round" stroke-linejoin="round"/>
<path d="M22.9803 48.5537L28.7927 45.7023L23.8173 41.7759L22.9803 48.5537Z" fill="#E27625" stroke="#E27625" stroke-width="0.105293" stroke-linecap="round" stroke-linejoin="round"/>
<path d="M35.209 45.7023L41.0214 48.5537L40.2309 41.7759L35.209 45.7023Z" fill="#E27625" stroke="#E27625" stroke-width="0.105293" stroke-linecap="round" stroke-linejoin="round"/>
<path d="M41.0214 48.5533L35.209 45.7019L35.674 49.4881L35.6275 51.1241L41.0214 48.5533Z" fill="#D5BFB2" stroke="#D5BFB2" stroke-width="0.105293" stroke-linecap="round" stroke-linejoin="round"/>
<path d="M22.9803 48.5533L28.3742 51.1241V49.4881L28.7927 45.7019L22.9803 48.5533Z" fill="#D5BFB2" stroke="#D5BFB2" stroke-width="0.105293" stroke-linecap="round" stroke-linejoin="round"/>
<path d="M28.5127 39.2516L23.6769 37.8025L27.0713 36.26L28.5127 39.2516Z" fill="#233447" stroke="#233447" stroke-width="0.105293" stroke-linecap="round" stroke-linejoin="round"/>
<path d="M35.5334 39.2516L36.9284 36.26L40.3693 37.8025L35.5334 39.2516Z" fill="#233447" stroke="#233447" stroke-width="0.105293" stroke-linecap="round" stroke-linejoin="round"/>
<path d="M22.9783 48.553L23.8153 41.5415L18.4679 41.6817L22.9783 48.553Z" fill="#CC6228" stroke="#CC6228" stroke-width="0.105293" stroke-linecap="round" stroke-linejoin="round"/>
<path d="M40.1848 41.5415L41.0218 48.553L45.5787 41.6817L40.1848 41.5415Z" fill="#CC6228" stroke="#CC6228" stroke-width="0.105293" stroke-linecap="round" stroke-linejoin="round"/>
<path d="M44.2759 33.8289L34.6041 34.2495L35.5341 39.2511L36.929 36.2595L40.37 37.802L44.2759 33.8289Z" fill="#CC6228" stroke="#CC6228" stroke-width="0.105293" stroke-linecap="round" stroke-linejoin="round"/>
<path d="M23.6767 37.802L27.0711 36.2595L28.5126 39.2511L29.396 34.2495L19.7242 33.8289L23.6767 37.802Z" fill="#CC6228" stroke="#CC6228" stroke-width="0.105293" stroke-linecap="round" stroke-linejoin="round"/>
<path d="M19.7242 33.8289L23.8161 41.7752L23.6766 37.802L19.7242 33.8289Z" fill="#E27525" stroke="#E27525" stroke-width="0.105293" stroke-linecap="round" stroke-linejoin="round"/>
<path d="M40.3697 37.802L40.2302 41.7752L44.2756 33.8289L40.3697 37.802Z" fill="#E27525" stroke="#E27525" stroke-width="0.105293" stroke-linecap="round" stroke-linejoin="round"/>
<path d="M29.3966 34.25L28.5131 39.2515L29.6291 45.1412L29.8616 37.3818L29.3966 34.25Z" fill="#E27525" stroke="#E27525" stroke-width="0.105293" stroke-linecap="round" stroke-linejoin="round"/>
<path d="M34.6026 34.25L34.1376 37.3818L34.3701 45.1412L35.5326 39.2515L34.6026 34.25Z" fill="#E27525" stroke="#E27525" stroke-width="0.105293" stroke-linecap="round" stroke-linejoin="round"/>
<path d="M35.5347 39.2515L34.3722 45.1412L35.2092 45.7021L40.2311 41.7757L40.3705 37.8025L35.5347 39.2515Z" fill="#F5841F" stroke="#F5841F" stroke-width="0.105293" stroke-linecap="round" stroke-linejoin="round"/>
<path d="M23.6769 37.8025L23.8164 41.7757L28.7918 45.7021L29.6287 45.1412L28.5128 39.2515L23.6769 37.8025Z" fill="#F5841F" stroke="#F5841F" stroke-width="0.105293" stroke-linecap="round" stroke-linejoin="round"/>
<path d="M35.6281 51.1241L35.6746 49.4881L35.2561 49.1141H28.7927L28.3742 49.4881V51.1241L22.9803 48.5532L24.8868 50.0958L28.6997 52.7601H35.3026L39.1155 50.0958L41.022 48.5532L35.6281 51.1241Z" fill="#C0AC9D" stroke="#C0AC9D" stroke-width="0.105293" stroke-linecap="round" stroke-linejoin="round"/>
<path d="M35.2077 45.7018L34.3707 45.1409H29.6278L28.7909 45.7018L28.3724 49.488L28.7909 49.1141H35.2542L35.6727 49.488L35.2077 45.7018Z" fill="#161616" stroke="#161616" stroke-width="0.105293" stroke-linecap="round" stroke-linejoin="round"/>
<path d="M52.4137 25.5556L53.8551 18.5441L51.7162 12L35.209 24.2935L41.5794 29.7157L50.5072 32.3334L52.5067 29.9962L51.6232 29.3885L53.0181 28.1265L51.9487 27.3318L53.3436 26.2567L52.4137 25.5556Z" fill="#763E1A" stroke="#763E1A" stroke-width="0.105293" stroke-linecap="round" stroke-linejoin="round"/>
<path d="M10.1448 18.5441L11.5863 25.5556L10.6563 26.2567L12.0512 27.3318L10.9818 28.1265L12.3767 29.3885L11.4933 29.9962L13.4927 32.3334L22.4671 29.7157L28.791 24.2935L12.2837 12L10.1448 18.5441Z" fill="#763E1A" stroke="#763E1A" stroke-width="0.105293" stroke-linecap="round" stroke-linejoin="round"/>
<path d="M50.5064 32.3337L41.5786 29.7161L44.2756 33.8295L40.2302 41.7759L45.5775 41.6824H53.5288L50.5064 32.3337Z" fill="#F5841F" stroke="#F5841F" stroke-width="0.105293" stroke-linecap="round" stroke-linejoin="round"/>
<path d="M22.4677 29.7161L13.4933 32.3337L10.5174 41.6824H18.4688L23.8162 41.7759L19.7243 33.8295L22.4677 29.7161Z" fill="#F5841F" stroke="#F5841F" stroke-width="0.105293" stroke-linecap="round" stroke-linejoin="round"/>
<path d="M34.603 34.2502L35.2075 24.2938L37.8114 17.2356H26.2332L28.7906 24.2938L29.3951 34.2502L29.6276 37.382V45.1414H34.3705L34.417 37.382L34.603 34.2502Z" fill="#F5841F" stroke="#F5841F" stroke-width="0.105293" stroke-linecap="round" stroke-linejoin="round"/>
</svg>
