<svg width="18" height="18" viewBox="0 0 18 18" fill="none" xmlns="http://www.w3.org/2000/svg">
<path fill-rule="evenodd" clip-rule="evenodd" d="M14.6321 7.11503C14.6321 10.054 11.6956 13.5907 10.0898 15.305C9.52977 15.9028 8.6097 15.9028 8.04969 15.305C6.44391 13.5907 3.50732 10.054 3.50732 7.11503C3.50732 3.98076 5.9977 1.43994 9.06973 1.43994C12.1418 1.43994 14.6321 3.98076 14.6321 7.11503ZM11.3261 7.26865C11.3261 8.46159 10.3782 9.42865 9.20897 9.42865C8.03972 9.42865 7.09186 8.46159 7.09186 7.26865C7.09186 6.07572 8.03972 5.10865 9.20897 5.10865C10.3782 5.10865 11.3261 6.07572 11.3261 7.26865Z" fill="white"/>
</svg>
