<svg id="Capa_1" data-name="Capa 1" xmlns="http://www.w3.org/2000/svg" xmlns:xlink="http://www.w3.org/1999/xlink" viewBox="0 0 1920 1080"><defs><style>.cls-1{fill:url(#linear-gradient);}.cls-2{fill:#2970d8;}.cls-3{fill:#fff;}.cls-4{fill:#1461db;}</style><linearGradient id="linear-gradient" x1="286.29" y1="416.21" x2="719.61" y2="666.39" gradientUnits="userSpaceOnUse"><stop offset="0.13" stop-color="#348bed"/><stop offset="0.31" stop-color="#2b80e8"/><stop offset="0.64" stop-color="#1461db"/><stop offset="0.72" stop-color="#0e57d7"/></linearGradient></defs><path class="cls-1" d="M690.87,383.26a33.49,33.49,0,0,0-33.49-33.51H344a33.49,33.49,0,0,0-33.49,33.51V696.74A33.5,33.5,0,0,0,344,730.25H549.93l140.94-141Z"/><path class="cls-2" d="M549.93,730.25H657.38a33.49,33.49,0,0,0,33.49-33.51V589.26Z"/><path class="cls-3" d="M635.46,527l-60.29-60.31h0l-.11-.11-.23-.2c-.4-.38-.81-.73-1.23-1.06s-.6-.46-.91-.67l-.43-.27A16.36,16.36,0,0,0,550.43,468l-93.76,93.79V478.25a16.56,16.56,0,1,0-33.11,0v83.52l-34.22-34.24A16.56,16.56,0,0,0,365.93,551l62.48,62.51a16.41,16.41,0,0,0,1.25,1.12c.42.34.85.66,1.3,1h0a16.48,16.48,0,0,0,7.47,2.67h.07c.54,0,1.07.08,1.61.08h.25c.45,0,.9,0,1.35-.07l.32-.05c.43,0,.85-.1,1.27-.18l.2,0c.46-.1.93-.21,1.39-.35l.07,0c.5-.16,1-.33,1.48-.53h0a16.69,16.69,0,0,0,2-1l.38-.22a18.42,18.42,0,0,0,1.8-1.28,1.07,1.07,0,0,1,.16-.14c.35-.3.7-.61,1-.94l95-95v83.3a16.56,16.56,0,1,0,33.11,0V518.23L612,550.38A16.56,16.56,0,1,0,635.46,527Z"/><polygon class="cls-4" points="770.93 489.8 820.05 489.8 820.05 618.16 849.48 618.16 849.48 489.8 898.6 489.8 898.6 462.31 770.93 462.31 770.93 489.8"/><path class="cls-4" d="M963.09,501a48.66,48.66,0,0,0-10.28,1.84,37.57,37.57,0,0,0-9.2,4.06,31.7,31.7,0,0,0-9.3,8.23,41.22,41.22,0,0,0-3.25,5V501.27h-26V618.16h29.65V558.42a36.91,36.91,0,0,1,1.84-12.07,26,26,0,0,1,14.17-15.64,32.4,32.4,0,0,1,11.63-3,30.46,30.46,0,0,1,11.31,1V501.27A55.28,55.28,0,0,0,963.09,501Z"/><path class="cls-4" d="M1085.34,519.24a34.27,34.27,0,0,0-18.17-16.45q-12-4.77-27.48-4.77-21.11,0-33.33,9.1a45.16,45.16,0,0,0-16.66,23.59l26.62,8.44a18.1,18.1,0,0,1,9.84-11.15,33.18,33.18,0,0,1,13.53-3.13q11.68,0,16.66,4.87c2.6,2.54,4.17,6.24,4.73,11l-14.14,2.11q-11.37,1.68-20.35,3.51a110.64,110.64,0,0,0-15.47,4.22,44.49,44.49,0,0,0-15,8.61,30.34,30.34,0,0,0-8.06,11.85,42.34,42.34,0,0,0-2.49,14.83,36,36,0,0,0,4.49,17.8,32.83,32.83,0,0,0,13.2,12.88q8.7,4.81,21.26,4.82,15.15,0,25-5.25a51.22,51.22,0,0,0,14.77-12.37v14.37h25.75V546.73q0-8-.65-14.5A35,35,0,0,0,1085.34,519.24Zm-27.48,63.42a28.28,28.28,0,0,1-4.49,6.17,30.44,30.44,0,0,1-8.87,6.55,29.68,29.68,0,0,1-13.69,2.87,22.92,22.92,0,0,1-8.76-1.52,12.53,12.53,0,0,1-5.68-4.38,11.72,11.72,0,0,1-2-6.87,11.3,11.3,0,0,1,1.24-5.31,13.33,13.33,0,0,1,3.9-4.38,30.1,30.1,0,0,1,7-3.74,76.83,76.83,0,0,1,8.76-2.59q5-1.2,13.09-2.65,5.22-.94,12.49-2.17c-.06,2.05-.16,4.34-.32,6.93A29.51,29.51,0,0,1,1057.86,582.66Z"/><path class="cls-4" d="M1224.81,529.14a49.28,49.28,0,0,0-6.87-14.88,37,37,0,0,0-13.47-11.8q-8.67-4.65-22.4-4.65-17.21,0-28.51,7.47a48,48,0,0,0-9.36,8.06V501.27H1118V618.16h29.86V558.85q0-10.94,2.43-17.53a24.82,24.82,0,0,1,6.23-10,20.09,20.09,0,0,1,8.11-4.6,30.75,30.75,0,0,1,8.11-1.18q9.42,0,14.56,4.22a23.91,23.91,0,0,1,7.41,10.49,46.32,46.32,0,0,1,2.7,12.51q.43,6.21.44,10.22v55.2h29.86V552.57q0-2.93-.44-9.3A74.67,74.67,0,0,0,1224.81,529.14Z"/><path class="cls-4" d="M1335,556.31q-8.05-4.6-21.37-8.07-13.64-3.47-20.29-5.62c-4.43-1.45-7.35-2.85-8.76-4.23a6.79,6.79,0,0,1-2.11-5.08q0-5.09,4.92-7.79t13-2.17c5.55.43,10,1.91,13.2,4.44a14.6,14.6,0,0,1,5.63,10.28l30.08-5.41a36,36,0,0,0-8.06-18.4,42.48,42.48,0,0,0-17.15-12,65.57,65.57,0,0,0-24.35-4.22q-14.17,0-24.61,4.5A36.78,36.78,0,0,0,1259,515.29a33.46,33.46,0,0,0-5.73,19.53,29.28,29.28,0,0,0,3.79,15.32q3.78,6.33,12.33,10.87t22.83,8.23q12.66,3.36,18.66,5.41c4,1.37,6.58,2.76,7.74,4.17a8.53,8.53,0,0,1,1.73,5.57A10,10,0,0,1,1316,593c-2.88,2-7,3.08-12.33,3.08q-9.73,0-16.07-4.65a21.11,21.11,0,0,1-8.17-12.88l-30.08,4.54q2.92,18.3,16.5,28.31t35.65,10q22.93,0,35.92-10.28t13-28.25a30.85,30.85,0,0,0-3.68-15.53Q1343.07,560.9,1335,556.31Z"/><path class="cls-4" d="M1467.48,519.24a34.27,34.27,0,0,0-18.17-16.45q-12-4.77-27.48-4.77-21.11,0-33.33,9.1a45.16,45.16,0,0,0-16.66,23.59l26.61,8.44q2.82-8,9.85-11.15a33.18,33.18,0,0,1,13.53-3.13q11.67,0,16.66,4.87c2.6,2.54,4.16,6.24,4.73,11l-14.15,2.11q-11.35,1.68-20.34,3.51a110.64,110.64,0,0,0-15.47,4.22,44.49,44.49,0,0,0-15,8.61,30.23,30.23,0,0,0-8.06,11.85,42.34,42.34,0,0,0-2.49,14.83,35.88,35.88,0,0,0,4.49,17.8,32.83,32.83,0,0,0,13.2,12.88q8.7,4.81,21.26,4.82,15.15,0,25-5.25a51,51,0,0,0,14.77-12.37v14.37h25.75V546.73a144.43,144.43,0,0,0-.65-14.5A34.82,34.82,0,0,0,1467.48,519.24ZM1440,582.66a28.28,28.28,0,0,1-4.49,6.17,30.58,30.58,0,0,1-8.87,6.55,29.71,29.71,0,0,1-13.69,2.87,22.92,22.92,0,0,1-8.76-1.52,12.53,12.53,0,0,1-5.68-4.38,11.65,11.65,0,0,1-2-6.87,11.3,11.3,0,0,1,1.24-5.31,13.33,13.33,0,0,1,3.9-4.38,30.1,30.1,0,0,1,7-3.74,76.83,76.83,0,0,1,8.76-2.59q5-1.2,13.09-2.65,5.22-.94,12.49-2.17c-.06,2.05-.16,4.34-.32,6.93A29.51,29.51,0,0,1,1440,582.66Z"/><polygon class="cls-4" points="1563.99 559.72 1606.19 501.27 1569.83 501.27 1530.23 557.55 1530.23 462.31 1500.37 462.31 1500.16 618.16 1530.23 618.16 1530.23 561.88 1570.7 618.16 1609 618.16 1563.99 559.72"/></svg>