<svg width="18" height="18" viewBox="0 0 18 18" fill="none" xmlns="http://www.w3.org/2000/svg">
<g clip-path="url(#clip0_4500_2875)">
<path d="M16.2525 13.6275L12.2775 9.6525H11.535L9.63 11.5575V12.3L13.605 16.275C13.8975 16.5675 14.37 16.5675 14.6625 16.275L16.2525 14.685C16.545 14.4 16.545 13.92 16.2525 13.6275Z" fill="#CFCDD4"/>
<path d="M13.005 7.6425L14.0625 6.585L15.6525 8.175C16.53 7.2975 16.53 5.8725 15.6525 4.995L12.9975 2.34L11.94 3.3975V1.2825L11.415 0.75L8.76 3.405L9.2925 3.9375H11.415L10.3575 4.995L11.1525 5.79L8.985 7.9575L5.8875 4.86V3.795L3.6225 1.53L1.5 3.6525L3.7725 5.925H4.83L7.9275 9.0225L7.29 9.66H5.7L1.725 13.635C1.4325 13.9275 1.4325 14.4 1.725 14.6925L3.315 16.2825C3.6075 16.575 4.08 16.575 4.3725 16.2825L8.3475 12.3075V10.7175L12.21 6.855L13.005 7.6425Z" fill="#CFCDD4"/>
</g>
<defs>
<clipPath id="clip0_4500_2875">
<rect width="18" height="18" fill="white"/>
</clipPath>
</defs>
</svg>
