<?xml version="1.0" encoding="UTF-8" standalone="no"?><!DOCTYPE svg PUBLIC "-//W3C//DTD SVG 1.1//EN" "http://www.w3.org/Graphics/SVG/1.1/DTD/svg11.dtd"><svg width="100%" height="100%" viewBox="0 0 1250 1250" version="1.1" xmlns="http://www.w3.org/2000/svg" xmlns:xlink="http://www.w3.org/1999/xlink" xml:space="preserve" xmlns:serif="http://www.serif.com/" style="fill-rule:evenodd;clip-rule:evenodd;stroke-linejoin:round;stroke-miterlimit:2;"><path d="M145.833,625.001c0,-264.46 214.708,-479.168 479.168,-479.168c264.458,0 479.166,214.708 479.166,479.168c-0,264.458 -214.708,479.166 -479.166,479.166c-264.46,-0 -479.168,-214.708 -479.168,-479.166Z" style="fill:url(#_Linear1);"/><path d="M624.617,346.7c153.386,-0 277.916,124.53 277.916,277.917c0,153.386 -124.53,277.916 -277.916,277.916c-153.387,0 -277.917,-124.53 -277.917,-277.916c-0,-153.387 124.53,-277.917 277.917,-277.917Zm91.318,208.515c0,-12.096 -9.821,-21.916 -21.917,-21.916l-138.803,-0c-12.096,-0 -21.916,9.82 -21.916,21.916l-0,138.803c-0,12.096 9.82,21.917 21.916,21.917l138.803,0c12.096,0 21.917,-9.821 21.917,-21.917l0,-138.803Z" style="fill:#fff;"/><defs><linearGradient id="_Linear1" x1="0" y1="0" x2="1" y2="0" gradientUnits="userSpaceOnUse" gradientTransform="matrix(5.8681e-14,-958.333,958.333,5.8681e-14,625.001,1104.17)"><stop offset="0" style="stop-color:#124bdc;stop-opacity:1"/><stop offset="1" style="stop-color:#2d65f8;stop-opacity:1"/></linearGradient></defs></svg>