<?xml version="1.0" encoding="utf-8"?>
<!-- Generator: Adobe Illustrator 16.0.0, SVG Export Plug-In . SVG Version: 6.00 Build 0)  -->
<!DOCTYPE svg PUBLIC "-//W3C//DTD SVG 1.1//EN" "http://www.w3.org/Graphics/SVG/1.1/DTD/svg11.dtd">
<svg version="1.1" id="Layer_1" xmlns="http://www.w3.org/2000/svg" xmlns:xlink="http://www.w3.org/1999/xlink" x="0px" y="0px"
	 width="300px" height="300px" viewBox="0 0 300 300" enable-background="new 0 0 300 300" xml:space="preserve">
<g>
	<path fill="#1E4BC6" d="M297.462,105.461c-3.694-27.859-13.55-53.112-30.941-71.601h-0.006
		c-18.491-17.39-43.737-27.25-71.597-30.941c-26.609-3.523-44.729-2.659-44.729-2.659s-18.119-0.864-44.729,2.659
		c-27.865,3.692-53.109,13.552-71.6,30.941h-0.003C16.469,52.35,6.61,77.603,2.914,105.461c-3.526,26.607-2.649,44.73-2.649,44.73
		s-0.877,18.116,2.649,44.729c3.696,27.859,13.555,53.105,30.944,71.599l0.003,0.004c18.491,17.386,43.735,27.247,71.6,30.938
		c26.61,3.526,44.729,2.658,44.729,2.658s18.119,0.868,44.729-2.658c27.859-3.691,53.105-13.553,71.597-30.938l0.006-0.004
		c17.392-18.493,27.247-43.739,30.941-71.599c3.523-26.612,2.655-44.729,2.655-44.729S300.985,132.069,297.462,105.461"/>
	<path fill="#FFFFFF" d="M233.959,176.377v-52.373c6.474-2.948,10.98-9.458,10.98-17.034c0-10.339-8.382-18.723-18.722-18.723
		c-3.839,0-7.404,1.16-10.375,3.14l-46.731-26.979c0.015-0.318,0.047-0.632,0.047-0.956c0-10.34-8.382-18.723-18.724-18.723
		c-10.34,0-18.723,8.383-18.723,18.723c0,0.242,0.027,0.477,0.037,0.718l-46.764,27c-2.898-1.842-6.326-2.923-10.015-2.923
		c-10.34,0-18.723,8.383-18.723,18.723c0,7.287,4.172,13.584,10.247,16.679v53.081c-6.075,3.096-10.247,9.393-10.247,16.681
		c0,10.339,8.383,18.718,18.723,18.718c3.688,0,7.114-1.079,10.012-2.92l46.767,27.002c-0.011,0.24-0.037,0.477-0.037,0.718
		c0,10.34,8.383,18.722,18.723,18.722c10.342,0,18.724-8.382,18.724-18.722c0-0.321-0.032-0.638-0.047-0.957l46.734-26.979
		c2.968,1.979,6.536,3.137,10.372,3.137c10.34,0,18.722-8.379,18.722-18.718C244.939,185.832,240.433,179.323,233.959,176.377z
		 M207.49,193.411c0,0.823,0.071,1.631,0.174,2.425l-45.68,26.373c-3.183-2.501-7.188-4.004-11.55-4.004
		c-4.445,0-8.524,1.556-11.734,4.146l-45.246-26.124c0.141-0.922,0.235-1.855,0.235-2.815c0-7.864-4.851-14.583-11.719-17.357
		v-51.728c6.868-2.772,11.719-9.493,11.719-17.355c0-0.959-0.095-1.894-0.235-2.814l45.247-26.124
		c3.21,2.587,7.288,4.144,11.732,4.144c4.362,0,8.367-1.503,11.547-4.005l45.683,26.375c-0.103,0.796-0.174,1.601-0.174,2.424
		c0,7.576,4.51,14.085,10.984,17.033v52.374C212,179.323,207.49,185.832,207.49,193.411z"/>
	<path fill-rule="evenodd" clip-rule="evenodd" fill="#45D2F9" d="M169.342,139.168c0-10.352-8.394-18.75-18.748-18.75
		c-10.358,0-18.754,8.398-18.754,18.75c0,7.43,4.331,13.826,10.594,16.862v23.929h16.318V156.03
		C165.013,152.994,169.342,146.599,169.342,139.168"/>
</g>
</svg>
