<?xml version="1.0" encoding="UTF-8"?>
<svg width="144px" height="144px" viewBox="0 0 144 144" version="1.1" xmlns="http://www.w3.org/2000/svg" xmlns:xlink="http://www.w3.org/1999/xlink">
    <!-- Generator: Sketch 51.1 (57501) - http://www.bohemiancoding.com/sketch -->
    <title>logo</title>
    <desc>Created with Sketch.</desc>
    <defs>
        <linearGradient x1="0%" y1="0%" x2="82.0493136%" y2="82.0493136%" id="linearGradient-1">
            <stop stop-color="#2B3450" offset="0%"></stop>
            <stop stop-color="#06080E" offset="100%"></stop>
        </linearGradient>
    </defs>
    <g id="Page-1" stroke="none" stroke-width="1" fill="none" fill-rule="evenodd">
        <g id="logo" fill-rule="nonzero">
            <path d="M132.375,71.9093484 C136.25625,71.9093484 139.5625,74.4589235 140.640625,78 C140.85625,75.6628895 141,73.3966006 141,70.9886686 C141,33.4532578 110.09375,3 72,3 C33.90625,3 3,33.4532578 3,70.9886686 C3,71.2719547 3,71.6260623 3,71.9093484 L132.375,71.9093484 Z" id="Shape" fill="#D8D1C6"></path>
            <circle id="Oval" fill="#FF7507" cx="43.5" cy="34.5" r="13.5"></circle>
            <circle id="Oval" fill="#FF7507" cx="90" cy="42" r="21"></circle>
            <path d="M58.2140072,74.5711723 C59.5752791,74.6622868 60.9440141,74.7545701 62.3179743,74.8478321 L69.1968732,66.1910828 L72.9343731,68.3407643 L80.1218729,70.9920382 L85.2249978,68.3407643 L101.540622,51 L107.218747,58.5955414 L109.949997,56.3742038 L113.543747,56.3742038 L122.599997,68.9856688 L129.068747,67.910828 L140.389108,80.7293551 C140.791918,80.7707625 141.001012,80.7977469 140.999996,80.8089172 C137.651457,117.645271 110.093747,141 71.9999982,141 C33.9062492,141 3,110.187898 3,72.2101911 C3,71.8337478 6.49805288,71.787826 12.3803002,71.9778855 L22.1906245,54.7977707 L33.5468742,54.7977707 L39.1739035,73.3486507 C41.6744537,73.5009646 44.2499968,73.661834 46.8820079,73.8296869 L53.6718736,72.066879 L58.2140231,74.5711733 Z" id="Combined-Shape" fill="#C2B5AE"></path>
            <path d="M72.026373,141 C43.3156498,141 18.7630923,121.127488 9,96.0715883 C10.9526185,96.0715883 12.9775561,96.1431766 15.074813,96.1431766 C16.0872818,96.4295297 17.244389,96.5727063 18.4738155,96.5727063 C19.4862843,96.5727063 21.9235057,96.2147649 22.7913362,96 C23.2252514,96 23.7314858,96 24.165401,96.0715883 C24.0207626,96.501118 24.0207626,96.6442946 24.0207626,96.7874711 C24.0207626,100.008944 26.246572,102.54592 30.9473201,102.54592 C35.575749,102.54592 38,100.506599 38.2169576,97.4283033 C38.9401496,97.4998915 41.0024438,97.356715 41.7256359,97.4283033 C61.2518204,99.5043635 62.2992519,103.134832 62.2992519,103.278008 C62.3715711,103.564361 61.9868143,106.676261 58.0815774,109.325028 C49.6925499,115.052091 47.6827956,117.90172 48.4783068,121.481134 C49.4184564,125.776431 54.1941302,125.663161 62.2992519,128.068089 C64.4822458,128.715821 67.4339152,129.070325 70.2543641,129.643031 C73.3640898,130.358914 76.6184539,131.003209 79.7281796,131.575915 C85.5137157,132.721327 91.3715711,133.86674 96,135.298506 C95.2282139,137.973686 80.4154004,141 72.026373,141 Z" id="Shape" fill="#D8D1C6"></path>
            <path d="M31.5,81 C31.5,81 27,96.12 27,96.408 C27,97.848 29,99 31.5,99 C34,99 36,97.848 36,96.408 C35.9375,96.192 31.5,81 31.5,81 Z" id="Shape" fill="#FF7507"></path>
            <path d="M19.5,75 C19.5,75 15,90.1084337 15,90.3975904 C15,91.8433735 17.028169,93 19.5,93 C21.971831,93 24,91.8433735 24,90.3975904 C24,90.1084337 19.5,75 19.5,75 Z" id="Shape" fill="#FF7507"></path>
            <path d="M114,76.6137184 C114,82.4620939 87,82.4620939 87,76.6137184 C87,70.765343 93.0311688,66 100.464935,66 C107.898701,66 114,70.6931408 114,76.6137184 Z" id="Shape" fill="#E1A57A"></path>
            <path d="M126,91.6139552 C126,97.4620149 99,97.4620149 99,91.6139552 C99,85.7658954 105.031169,81.0008097 112.464935,81.0008097 C119.968831,80.9286115 126,85.6936972 126,91.6139552 Z" id="Shape" fill="#E1A57A"></path>
            <path d="M99,109.613718 C99,115.462094 72,115.462094 72,109.613718 C72,103.765343 78.0311688,99 85.4649351,99 C92.8987013,99 99,103.765343 99,109.613718 Z" id="Shape" fill="#E1A57A"></path>
            <path d="M72,0 C32.328,0 0,32.328 0,72 C0,111.672 32.328,144 72,144 C111.672,144 144,111.672 144,72 C144,32.328 111.672,0 72,0 Z M72,138.24 C43.848,138.24 19.728,120.6 10.152,95.76 C12.024,95.76 14.04,95.832 16.056,95.832 C17.064,96.12 18.144,96.264 19.368,96.264 C20.304,96.264 21.24,96.192 22.032,95.976 C22.464,95.976 22.896,95.976 23.4,96.048 C23.256,96.48 23.256,96.624 23.256,96.768 C23.256,99.936 26.64,102.24 31.32,102.24 C35.856,102.24 39.168,100.08 39.312,97.056 C40.032,97.128 40.824,97.2 41.544,97.272 C60.696,99.36 61.992,102.816 61.992,102.96 C62.064,103.248 61.632,104.76 57.744,107.352 C49.608,112.968 46.8,116.352 47.52,119.88 C48.384,124.128 53.928,125.208 62.352,126.792 C64.728,127.224 67.392,127.728 70.128,128.376 C73.152,129.024 76.392,129.672 79.488,130.32 C85.104,131.472 90.864,132.624 95.472,133.992 C88.2,136.728 80.28,138.24 72,138.24 Z M17.568,90.072 C18,88.776 18.648,86.688 19.44,84.456 C20.232,86.76 20.952,88.848 21.312,90.144 C20.016,90.144 18.792,90.072 17.568,90.072 Z M29.448,96.192 C29.88,94.896 30.6,92.736 31.392,90.36 C32.184,92.736 32.904,94.896 33.336,96.192 C32.904,96.336 32.184,96.48 31.392,96.48 C30.6,96.48 29.88,96.336 29.448,96.192 Z M102.816,130.608 C97.416,127.944 89.208,126.36 80.568,124.632 C77.544,124.056 74.376,123.408 71.352,122.76 C68.544,122.112 65.808,121.608 63.36,121.176 C59.472,120.456 54.792,119.52 53.28,118.656 C53.784,117.864 55.368,115.992 60.984,112.176 C63,110.808 69.12,106.632 67.464,101.304 C65.952,96.336 58.104,93.312 42.12,91.584 C40.68,91.44 39.168,91.296 37.584,91.152 C36.792,88.776 35.64,85.392 33.984,80.496 L31.248,72.504 L28.512,80.496 C27.576,83.16 26.856,85.32 26.208,87.192 C25.488,84.888 24.192,81.144 21.96,74.664 L19.44,66.528 L16.704,74.52 C12.96,85.464 11.88,88.704 11.592,89.928 C10.44,89.928 9.36,89.928 8.28,89.928 C7.128,85.752 6.336,81.36 5.976,76.896 L12.6,76.68 L23.544,57.528 L31.104,57.528 L37.656,79.056 L53.064,75.096 L56.592,77.04 L49.104,86.472 L53.64,90.072 L69.624,69.84 L71.496,70.92 L80.136,74.088 L83.88,72.144 C83.16,73.656 82.728,75.312 82.728,77.04 C82.728,78.768 83.808,82.44 92.016,83.808 C94.608,84.24 96.552,86.472 96.552,89.136 L96.552,98.496 C95.4,97.704 94.104,96.984 92.664,96.48 C92.736,96.48 92.736,96.48 92.736,96.48 C89.568,95.472 86.616,93.96 85.68,90.864 C84.96,93.384 82.944,94.824 80.352,95.832 C73.656,97.632 68.832,102.672 68.832,108.648 C68.832,110.808 70.488,115.92 85.536,115.92 C100.656,115.92 102.24,110.808 102.24,108.648 L102.24,97.344 C103.248,97.704 104.4,97.992 105.768,98.208 C108.36,98.64 110.304,100.872 110.304,103.536 L110.304,110.016 C110.304,111.528 111.384,112.896 112.896,113.04 C114.624,113.184 116.064,111.816 116.064,110.16 L116.064,103.536 C116.064,100.872 118.008,98.64 120.6,98.208 C128.808,96.84 129.888,93.24 129.888,91.44 C129.888,86.616 126.72,82.44 122.04,80.064 C122.112,80.064 122.112,80.064 122.112,80.064 C122.04,80.064 121.968,79.992 121.824,79.992 C121.032,79.56 120.096,79.272 119.232,78.984 C117.936,78.336 116.784,77.472 115.992,76.392 C115.632,71.28 111.816,66.96 106.344,64.872 C106.344,64.872 106.344,64.872 106.344,64.872 C106.344,64.872 106.272,64.872 106.272,64.872 C105.912,64.728 105.552,64.656 105.192,64.512 C102.456,63.504 100.08,61.992 99.288,59.328 C98.424,62.28 95.904,63.792 92.664,64.8 C92.664,64.8 92.664,64.8 92.664,64.8 C92.448,64.872 92.16,64.944 91.944,65.088 L100.944,55.512 L106.344,62.784 L110.664,59.328 L111.744,59.328 L121.104,72.216 L127.728,71.064 L137.448,82.08 C134.28,103.104 121.104,120.96 102.816,130.608 Z M105.912,52.2 L101.592,46.368 L88.2,60.696 C78.768,59.688 71.424,51.696 71.424,41.976 C71.424,31.608 79.848,23.184 90.216,23.184 C100.584,23.184 109.008,31.608 109.008,41.976 C109.008,45.72 107.856,49.248 105.912,52.2 Z M110.304,76.608 C109.296,77.328 105.48,78.48 99.36,78.48 C99.36,78.48 99.36,78.48 99.36,78.48 C99.36,78.48 99.36,78.48 99.36,78.48 C93.24,78.48 89.424,77.328 88.416,76.608 C88.416,76.608 88.416,76.608 88.416,76.608 C88.704,72.576 93.6,69.264 99.36,69.264 C105.12,69.264 110.016,72.576 110.304,76.608 C110.304,76.608 110.304,76.608 110.304,76.608 Z M113.256,83.664 C119.016,83.664 123.912,86.976 124.2,91.008 C124.2,91.008 124.2,91.008 124.2,91.008 C123.192,91.728 119.376,92.88 113.256,92.88 C113.256,92.88 113.256,92.88 113.256,92.88 C113.256,92.88 113.256,92.88 113.256,92.88 C107.136,92.88 103.32,91.728 102.312,91.008 C102.312,91.008 102.312,91.008 102.312,91.008 C102.6,86.976 107.496,83.664 113.256,83.664 Z M96.48,108.216 C95.472,108.936 91.728,110.088 85.536,110.088 C79.344,110.088 75.6,108.936 74.592,108.216 C74.88,104.184 79.776,100.872 85.536,100.872 C91.296,100.872 96.192,104.184 96.48,108.216 Z M129.96,64.728 L123.768,65.808 L114.84,53.424 L111.96,53.424 C113.76,49.968 114.768,46.08 114.768,41.976 C114.768,28.44 103.752,17.424 90.216,17.424 C76.68,17.424 65.592,28.368 65.592,41.904 C65.592,53.136 73.224,62.64 83.52,65.592 L83.16,65.952 L79.632,67.752 L73.872,65.664 L68.184,62.352 L60.192,72.432 L53.784,68.904 L41.472,72.072 L35.28,51.768 L20.16,51.768 L9.144,71.064 L5.76,71.136 C6.192,34.992 35.784,5.76 72,5.76 C108.504,5.76 138.24,35.496 138.24,72 C138.24,72.72 138.24,73.368 138.24,74.088 L129.96,64.728 Z M45.216,51.408 C54.36,51.408 61.92,43.92 61.92,34.704 C61.92,25.488 54.432,18 45.216,18 C36,18 28.512,25.488 28.512,34.704 C28.512,43.92 36,51.408 45.216,51.408 Z M45.216,23.76 C51.192,23.76 56.16,28.656 56.16,34.704 C56.16,40.752 51.264,45.648 45.216,45.648 C39.168,45.648 34.272,40.752 34.272,34.704 C34.272,28.656 39.168,23.76 45.216,23.76 Z" id="Combined-Shape" fill="url(#linearGradient-1)"></path>
        </g>
    </g>
</svg>