<svg xmlns="http://www.w3.org/2000/svg" width="16" height="16" viewBox="0 0 16 16">
    <g fill="none" fill-rule="nonzero">
        <path d="M0 0h16v16H0z"/>
        <g>
            <circle cx="8" cy="8" r="8" fill="#F0F0F0"/>
            <g fill="#0052B4">
                <path d="M1.654 3.13A7.97 7.97 0 0 0 .276 5.912h4.161L1.654 3.13zM15.724 5.913a7.971 7.971 0 0 0-1.378-2.784l-2.783 2.784h4.161zM.276 10.087a7.972 7.972 0 0 0 1.378 2.784l2.783-2.784H.276zM12.87 1.654A7.971 7.971 0 0 0 10.088.276v4.161l2.784-2.783zM3.13 14.346a7.972 7.972 0 0 0 2.783 1.378v-4.161L3.13 14.346zM5.913.276a7.972 7.972 0 0 0-2.784 1.378l2.784 2.783V.276zM10.087 15.724a7.972 7.972 0 0 0 2.784-1.378l-2.784-2.783v4.161zM11.563 10.087l2.783 2.784a7.971 7.971 0 0 0 1.378-2.784h-4.161z"/>
            </g>
            <g fill="#D80027">
                <path d="M15.932 6.957H9.044V.067a8.08 8.08 0 0 0-2.087 0v6.89H.067a8.08 8.08 0 0 0 0 2.086h6.89v6.89a8.08 8.08 0 0 0 2.086 0v-6.89h6.89a8.08 8.08 0 0 0 0-2.086z"/>
                <path d="M10.087 10.087l3.57 3.57a8.02 8.02 0 0 0 .47-.514l-3.056-3.056h-.984zM5.913 10.087l-3.57 3.57c.164.164.336.32.514.47l3.056-3.056v-.984zM5.913 5.913l-3.57-3.57a8.02 8.02 0 0 0-.47.514l3.056 3.056h.984zM10.087 5.913l3.57-3.57a8.01 8.01 0 0 0-.514-.47l-3.056 3.056v.984z"/>
            </g>
        </g>
    </g>
</svg>
