<svg xmlns="http://www.w3.org/2000/svg" width="16" height="16" viewBox="0 0 16 16">
    <g fill="none" fill-rule="evenodd">
        <path d="M0 0h16v16H0z"/>
        <path fill="#FFDA44" d="M0 8c0 .979.176 1.916.498 2.783L8 11.478l7.502-.695A7.983 7.983 0 0 0 16 8c0-.979-.176-1.916-.498-2.783L8 4.522l-7.502.695A7.983 7.983 0 0 0 0 8z"/>
        <g fill="#D80027">
            <path d="M15.502 5.217a8.003 8.003 0 0 0-15.004 0h15.004zM.498 10.783a8.003 8.003 0 0 0 15.004 0H.498z"/>
        </g>
    </g>
</svg>
