<svg width="108" height="112" viewBox="0 0 108 112" fill="none" xmlns="http://www.w3.org/2000/svg">
    <path d="M18.8014 41.798L21.2701 48.4937C21.3629 48.7458 21.6029 48.9129 21.8711 48.9129C22.1393 48.9129 22.3793 48.7458 22.4721 48.4937L24.9408 41.798C26.9392 36.3774 31.2108 32.1045 36.6294 30.1059L43.3231 27.6364C43.5747 27.5435 43.7418 27.3035 43.7418 27.0352C43.7418 26.7669 43.5747 26.5269 43.3231 26.4341L36.629 23.9646C31.2105 21.9656 26.9388 17.693 24.9408 12.2728L22.4721 5.57715C22.3793 5.32544 22.1393 5.15826 21.8711 5.15826C21.6029 5.15826 21.3629 5.32544 21.2701 5.57715L18.8014 12.2728C16.803 17.693 12.5317 21.9656 7.1128 23.9646L0.418755 26.4341C0.167125 26.5269 0 26.7669 0 27.0352C0 27.3035 0.167125 27.5435 0.418755 27.6364L7.11243 30.1059C12.5313 32.1045 16.803 36.3771 18.8014 41.798Z" fill="#E57C5F"/>
    <path d="M73.0723 70.079L66.379 67.6098C60.9601 65.6109 56.6884 61.3383 54.6905 55.9181L52.2217 49.2224C52.1289 48.9707 51.8889 48.8035 51.6207 48.8035C51.3525 48.8035 51.1126 48.9707 51.0197 49.2224L48.551 55.9177C46.5526 61.3383 42.281 65.6109 36.8624 67.6098L30.1688 70.079C29.9171 70.1718 29.75 70.4118 29.75 70.6801C29.75 70.9484 29.9171 71.1884 30.1688 71.2813L36.8628 73.7512C42.2813 75.7501 46.5526 80.0227 48.551 85.4429L51.0197 92.139C51.1126 92.3907 51.3525 92.5578 51.6207 92.5578C51.8889 92.5578 52.1289 92.3907 52.2217 92.139L54.6905 85.4429C56.6888 80.0227 60.9601 75.7497 66.3786 73.7512L73.0727 71.2813C73.3243 71.1884 73.4914 70.9484 73.4914 70.6801C73.4914 70.4118 73.3239 70.1718 73.0723 70.079Z" fill="#EC79DD"/>
    <path d="M107.715 41.4395L103.166 39.7613C99.4834 38.4028 96.5804 35.4989 95.2222 31.8154L93.5446 27.2651C93.4812 27.0941 93.3182 26.9802 93.136 26.9802C92.9538 26.9802 92.7908 27.0941 92.7274 27.2651L91.0502 31.815C89.692 35.4989 86.789 38.4028 83.1063 39.7613L78.5573 41.4395C78.3864 41.5025 78.2725 41.6656 78.2725 41.8478C78.2725 42.0301 78.3864 42.1935 78.5573 42.2565L83.1066 43.9343C86.789 45.2932 89.692 48.1971 91.0502 51.8806L92.7274 56.4317C92.7908 56.6027 92.9538 56.7166 93.136 56.7166C93.3182 56.7166 93.4812 56.6027 93.5446 56.4317L95.2222 51.8806C96.5804 48.1967 99.483 45.2932 103.166 43.9347L107.715 42.2565C107.886 42.1935 108 42.0301 108 41.8478C108 41.6656 107.886 41.5025 107.715 41.4395Z" fill="#3D85E6"/>
    <path d="M96.6942 101.344L93.5207 100.173C90.952 99.2252 88.9273 97.1999 87.98 94.6307L86.8093 91.457C86.7656 91.3378 86.6517 91.2585 86.5245 91.2585C86.3974 91.2585 86.2834 91.3378 86.2397 91.457L85.0691 94.6307C84.1218 97.2003 82.097 99.2256 79.5287 100.173L76.3552 101.344C76.236 101.388 76.1567 101.502 76.1567 101.629C76.1567 101.756 76.236 101.87 76.3552 101.914L79.5283 103.085C82.0974 104.032 84.1221 106.058 85.0694 108.627L86.2401 111.802C86.2838 111.921 86.3978 112 86.5249 112C86.652 112 86.766 111.921 86.8097 111.802L87.9803 108.627C88.9276 106.058 90.9524 104.032 93.5215 103.085L96.6946 101.914C96.8138 101.87 96.893 101.756 96.893 101.629C96.893 101.502 96.8138 101.388 96.6942 101.344Z" fill="#E57C5F"/>
    <path d="M73.2914 10.0856L70.1179 8.91502C67.5492 7.96744 65.5244 5.94209 64.5775 3.37257L63.4069 0.198875C63.3631 0.079248 63.2492 0 63.1221 0C62.9949 0 62.881 0.079248 62.8372 0.198497L61.667 3.37181C60.7197 5.94133 58.6946 7.96706 56.1258 8.91464L52.9523 10.0852C52.8331 10.129 52.7539 10.243 52.7539 10.3702C52.7539 10.4973 52.8331 10.6113 52.9523 10.6551L56.1255 11.8261C58.6946 12.7736 60.7197 14.7994 61.667 17.3693L62.8372 20.543C62.881 20.6622 62.9949 20.7415 63.1221 20.7415C63.2492 20.7415 63.3631 20.6622 63.4069 20.543L64.5775 17.3689C65.5248 14.799 67.5495 12.7736 70.1187 11.8264L73.2918 10.6555C73.411 10.6117 73.4902 10.4977 73.4902 10.3705C73.4902 10.2434 73.411 10.1294 73.2914 10.0856Z" fill="#EC79DD"/>
    <path d="M34.3679 94.8183L30.3766 93.3465C27.1457 92.1548 24.5985 89.6068 23.4064 86.3746L21.9347 82.382C21.8792 82.2322 21.7362 82.1322 21.5763 82.1322C21.4163 82.1322 21.2734 82.2322 21.2179 82.382L19.7462 86.3742C18.5548 89.6064 16.0076 92.1544 12.776 93.3465L8.78539 94.8183C8.63486 94.8734 8.53564 95.0168 8.53564 95.1768C8.53564 95.3368 8.63524 95.4802 8.78539 95.5353L12.7764 97.0078C16.0072 98.1995 18.5545 100.748 19.7462 103.98L21.2179 107.972C21.2734 108.122 21.4163 108.222 21.5763 108.222C21.7362 108.222 21.8796 108.122 21.9347 107.972L23.4067 103.979C24.5981 100.748 27.145 98.1999 30.3762 97.0078L34.3679 95.5353C34.5181 95.4802 34.6177 95.3368 34.6177 95.1768C34.6177 95.0168 34.5185 94.8734 34.3679 94.8183Z" fill="#3D85E6"/>
</svg>
