<svg xmlns="http://www.w3.org/2000/svg" width="14" height="16" viewBox="0 0 14 16">
    <g fill="none" fill-rule="evenodd">
        <path d="M-2.667-2h20v20h-20z"/>
        <path fill="#676370" fill-rule="nonzero" d="M9.963 11.928V15.57c0 .174 0 .26-.177.174H6.067c-.177 0-.177-.087-.177-.174v-1.647c0-.087.089-.174-.088-.174h-.266a4.387 4.387 0 0 1-1.505 0c-.885-.26-1.505-.693-1.86-1.56a8.574 8.574 0 0 0-.973-1.475c-.089-.173-.354-.173-.443-.346-.088-.087-.088-.087-.088-.174s.088-.087.177-.087c.797-.086 1.416.347 1.77.954.355.607.886 1.04 1.506 1.214.53.087.973.087 1.505-.086.088 0 .177-.087.177-.26 0-.52.177-.954.531-1.388-.177 0-.266-.087-.354-.087A4.213 4.213 0 0 1 3.677 9.5 3.685 3.685 0 0 1 2.26 7.246a11.937 11.937 0 0 1 0-2.515c.089-.607.266-1.214.709-1.734.177-.173.177-.26.088-.52-.265-.694-.177-1.388.089-2.081 0-.174.088-.174.265-.174.532.174.974.434 1.328.78.177.174.354.347.532.608.088.086.088.086.177 0 .265-.26.62-.26.974-.347a8.773 8.773 0 0 1 3.01 0c.354.086.708.086.974.347.177.086.177.086.265-.087.266-.347.62-.694.974-.954.266-.173.531-.26.797-.347.089 0 .177 0 .266.087.265.78.354 1.474 0 2.254 0 .087-.089.174 0 .26.53.434.708 1.041.796 1.648.089.78.177 1.561.089 2.341-.177 1.301-.885 2.342-2.036 2.949-.089 0-.089 0-.089.086 0 0-.088 0-.088.087-.089 0-.178.087-.266.087h-.089c-.088 0-.088 0-.088.086h-.089a.684.684 0 0 0-.442.174h-.089c-.088 0-.265 0-.354.087H9.52c-.088 0 0 .086 0 .086 0 .087 0 .087.089.087 0 .087.088.087.088.173 0 .087 0 .174.089.26v.087c0 .087 0 .26.088.347v.26c.089.174.089.174.089.26z"/>
    </g>
</svg>
