<svg xmlns="http://www.w3.org/2000/svg" width="16" height="16" viewBox="0 0 16 16">
    <g fill="none" fill-rule="evenodd">
        <path fill-rule="nonzero" d="M0 0h16v16H0z"/>
        <g>
            <circle cx="8" cy="8" r="8" fill="#F0F0F0"/>
            <path fill="#D80027" d="M10.783 8c0 .696-1.246 2.435-2.783 2.435S5.217 8.695 5.217 8a2.783 2.783 0 1 1 5.566 0z"/>
            <path fill="#0052B4" d="M10.783 8a2.783 2.783 0 1 1-5.566 0"/>
            <path fill="#000" d="M10.951 10.46l.738-.738.492.492-.738.737zM9.721 11.69l.738-.738.492.491-.738.738zM12.427 11.935l.738-.738.492.492-.738.738zM11.197 13.165l.738-.738.492.492-.738.738zM11.69 11.197l.737-.738.492.492-.738.738zM10.46 12.427l.737-.738.492.492-.737.738zM12.427 5.54L10.46 3.573l.492-.492 1.967 1.967zM10.46 5.049l-.738-.738.492-.492.738.738zM11.69 6.278l-.738-.738.491-.491.738.737zM11.935 3.573l-.738-.738.492-.492.738.738zM13.165 4.803l-.738-.738.492-.492.738.738zM2.835 11.197l1.968 1.968-.492.492-1.968-1.968zM4.803 11.69l.737.737-.492.492-.737-.738zM3.573 10.46l.738.737-.492.492-.738-.738zM4.31 9.722l1.968 1.967-.492.492-1.967-1.967zM4.803 2.835L2.835 4.803l-.492-.492 1.968-1.968zM5.54 3.573L3.573 5.54l-.492-.492 1.967-1.967zM6.279 4.31L4.31 6.279l-.492-.491 1.968-1.968z"/>
        </g>
    </g>
</svg>
