<svg xmlns="http://www.w3.org/2000/svg" width="19" height="17" viewBox="0 0 19 17">
    <g fill="none" fill-rule="evenodd">
        <path d="M-.333-1h20v20h-20z"/>
        <path fill="#676370" fill-rule="nonzero" d="M18.556 8.532c0 .417-.084.75-.333 1.084a1.633 1.633 0 0 1-.747.75c.083.334.083.584.083.918 0 1-.333 2-1.08 2.834-.665.834-1.662 1.585-2.825 2.085-1.163.5-2.492.75-3.987.75-1.413 0-2.742-.25-3.905-.75-1.246-.5-2.16-1.167-2.824-2.085-.665-.833-1.08-1.834-1.08-2.834 0-.334 0-.584.083-.918-.332-.166-.582-.416-.83-.75C.943 9.283.777 8.95.777 8.532c0-.5.166-1 .581-1.417.416-.417.831-.584 1.413-.584.581 0 .996.167 1.412.584 1.412-1 3.157-1.501 5.067-1.584L10.414.36c0-.083.083-.167.166-.167.084-.083.167-.083.25-.083l3.655.834c.083-.25.332-.417.498-.584.25-.167.499-.25.748-.25.415 0 .748.167 1.08.417.25.25.415.667.415 1.084 0 .417-.166.75-.415 1.084-.25.333-.665.417-1.08.417-.415 0-.748-.167-1.08-.417-.25-.25-.415-.667-.415-1.084l-3.323-.75-.997 4.669c1.994.083 3.655.583 5.15 1.584.416-.417.831-.584 1.413-.584.581 0 .997.167 1.412.584.498.417.665.917.665 1.417zM5.015 10.533c0 .417.166.75.415 1.084.25.334.664.417 1.08.417.415 0 .748-.167 1.08-.417.249-.25.415-.667.415-1.084 0-.417-.166-.75-.415-1.084-.25-.25-.665-.417-1.08-.417-.416 0-.748.167-.997.417-.25.25-.498.667-.498 1.084zm7.975 3.502c.083-.083.083-.167.083-.25 0-.083 0-.167-.083-.25-.083-.084-.167-.084-.25-.084-.083 0-.166 0-.249.084-.249.25-.664.5-1.163.583-.498.167-1.08.167-1.578.167-.499 0-1.08-.083-1.579-.167-.498-.166-.913-.333-1.163-.583-.083-.084-.166-.084-.249-.084-.083 0-.166 0-.25.084-.082.083-.082.167-.082.25 0 .083 0 .167.083.25.25.25.664.5 1.163.667.498.167.914.25 1.246.334.332 0 .582.083.914.083.332 0 .581 0 .914-.083.332 0 .747-.167 1.246-.334.332-.167.747-.333.997-.667zm0-2.001c.415 0 .747-.167 1.08-.417.332-.25.415-.667.415-1.084 0-.417-.166-.75-.415-1a1.53 1.53 0 0 0-.997-.417c-.416 0-.748.167-1.08.417-.25.25-.416.667-.416 1.084 0 .416.167.75.416 1.083.249.167.581.334.997.334z"/>
    </g>
</svg>
