<svg xmlns="http://www.w3.org/2000/svg" width="12" height="12" viewBox="0 0 12 12">
  <path fill="#736E7D" d="M22.5555458,9.8 C23.2431208,9.8 23.8,10.3568792 23.8,11.0444542 L23.8,19.7555458 C23.8,20.4431208 23.2431208,21 22.555575,21 L13.8444542,21 C13.1568792,21 12.6,20.4431208 12.6,19.7555458 L12.6,17.2666667 L13.8444542,17.2666667 L13.8444542,19.755575 L22.555575,19.755575 L22.555575,11.0444542 L13.8444542,11.0444542 L13.8444542,13.5333333 L12.6,13.5333333 L12.6,11.0444542 C12.6,10.3568792 13.1568792,9.8 13.8444542,9.8 L22.5555458,9.8 Z M17.0084542,17.6306667 L18.6168792,16.0222125 L12.6,16.0222125 L12.6,14.7777875 L18.6168792,14.7777875 L17.0084542,13.1693333 L17.8888792,12.2888792 L21,15.4 L17.8888792,18.5111208 L17.0084542,17.6306667 Z" transform="translate(-11.9 -9.7)"/>
</svg>
