<svg xmlns="http://www.w3.org/2000/svg" width="16" height="16" viewBox="0 0 16 16">
    <g fill="none" fill-rule="evenodd">
        <path fill-rule="nonzero" d="M0 0h16v16H0z"/>
        <path fill-rule="nonzero" d="M0 0h16v16H0z"/>
        <g>
            <circle cx="8" cy="8" r="8" fill="#D80027"/>
            <g fill="#FFDA44">
                <path d="M4.378 4.869l.69 2.125h2.235L5.497 8.309l.69 2.125-1.809-1.312-1.81 1.312.694-2.125-1.809-1.315h2.235zM9.484 12.39l-.528-.65-.781.304.453-.703-.528-.654.81.216.456-.703.043.837.813.216-.784.3zM10.534 10.484l.25-.8L10.1 9.2l.838-.013.246-.8.272.794.838-.01-.672.5.269.795-.685-.485zM11.95 5.872l-.369.753.6.584-.828-.118-.369.75-.143-.825-.832-.12.744-.39-.144-.828.6.584zM9.506 3.59l-.062.835.778.316-.816.2-.06.837-.44-.712-.815.2.54-.641-.444-.71.779.316z"/>
            </g>
        </g>
    </g>
</svg>
